Simulation
nRows=28
nColumns=15
endheader
time  TH_x TH_y TH_z SC_y  SC_z  SC_x  AC_y  AC_z  AC_x  GH_y  GH_z  GH_yy  EL_x  PS_y
1.55  0.000000  0.000000  0.000000  -33.15414885374281  7.488168739173328  40.82815181716887  61.885263220541496  0.40268464127088877  5.427129438014625  -32.9818236358477  56.00521333568303  39.30587092375116  8.872340174187597  120.000000
1.581  0.000000  0.000000  0.000000  -31.300060977953304  7.561899873836501  41.10244523374637  61.79880683610626  -0.6626352109438775  4.901583510169322  -34.13086530688252  57.410166019699986  36.5427480324154  8.907183013629073  120.000000
1.612  0.000000  0.000000  0.000000  -29.672368719170738  7.700387054912724  41.3841255859559  61.4081330494503  -1.921292300141402  4.226041148071897  -34.88115608722198  58.64587112900391  33.6298408307107  8.891254427204043  120.000000
1.643  0.000000  0.000000  0.000000  -28.426274944459248  7.865028904199153  41.31082070916159  61.17992520731536  -2.6566672039892576  3.678764545345581  -35.344339909600286  59.329698889384574  30.518465770036418  8.96299560443761  120.000000
1.674  0.000000  0.000000  0.000000  -27.649777261891007  7.974366433491806  41.13312889643702  60.87242035490453  -3.0731414195695246  3.387204025353385  -35.64117840979114  59.83359610240876  28.24022643824012  9.017286794492456  120.000000
1.705  0.000000  0.000000  0.000000  -27.374837476684508  8.071062229609247  40.98597157846118  60.79908543924667  -3.3469339268890677  3.063875157401316  -35.625229704932565  59.98649292803375  26.64104713687622  9.143523869101232  120.000000
1.736  0.000000  0.000000  0.000000  -27.3469497222268  8.12808900102881  40.69330306651394  60.62528460012741  -3.4832375275033147  2.7057128646780004  -35.46804760944264  60.24858614866596  25.8354962977864  9.277278365111057  120.000000
1.767  0.000000  0.000000  0.000000  -27.56333699372993  8.203405334248302  40.22194688269171  60.50756707770044  -3.2871707892821185  2.502245338202162  -35.1452870299176  60.389614415852066  25.81768764613955  9.392672282920472  120.000000
1.798  0.000000  0.000000  0.000000  -28.065465406322268  8.292504176058996  39.79417983214549  60.31752702968438  -2.7180009950839694  2.6896598253359896  -34.96709438318186  60.39593755812787  26.26759639696449  9.430615029111834  120.000000
1.829  0.000000  0.000000  0.000000  -28.786094268589174  8.361409850563717  39.79494010435053  60.37735175283506  -2.6093507196754193  2.6322853287417005  -34.65835127598312  60.423457414639714  27.039325327635478  9.4379790795157  120.000000
1.8599999999999999  0.000000  0.000000  0.000000  -29.641263021649536  8.458575766672048  39.9690260668196  60.273346778425456  -2.872451779058106  2.1320372235918374  -34.099478807131135  60.46070100058624  27.596273579997  9.467335882732145  120.000000
1.891  0.000000  0.000000  0.000000  -30.515982431486474  8.578074434364751  39.95906431252873  60.03969118890614  -2.7846003123667376  1.8186146318794485  -33.43610545477162  60.305472398879274  28.042521068757043  9.480106798116113  120.000000
1.922  0.000000  0.000000  0.000000  -31.324837287921127  8.8578398280616  39.66761474359237  59.50003566189543  -2.4429357307733475  1.6299359837650185  -32.78052463653302  60.08812005302481  28.244087561387644  9.457145520283197  120.000000
1.953  0.000000  0.000000  0.000000  -32.107112706397444  9.312852915061896  39.159007009805904  59.08942350146729  -2.1334174912128057  1.6426905841194033  -32.13056069935298  59.87657166497028  28.15521616793485  9.396312835565698  120.000000
1.984  0.000000  0.000000  0.000000  -32.90116085988783  9.942257089541357  38.55595928786264  58.375238832329295  -1.8314748703246861  1.7652640654077185  -31.392983737124847  59.577541113171925  27.866480309679478  9.342264142391327  120.000000
2.015  0.000000  0.000000  0.000000  -33.725208268125485  10.623147856854395  37.781289357736554  57.846127142059714  -1.432805539043329  1.9946012663894195  -30.61148116173248  59.125868429455316  27.380720325788875  9.30413766822006  120.000000
2.046  0.000000  0.000000  0.000000  -34.74425775430164  11.383516524593869  36.87103120353413  57.06440616839762  -0.9809834818175815  2.2837866694630997  -29.524019912374182  58.49291192050369  26.73641319883159  9.344198616496316  120.000000
2.077  0.000000  0.000000  0.000000  -36.013409466048174  12.053977205843326  35.66777973574048  56.57593881838595  -0.10713062036769522  2.821518482479411  -28.300270385889128  57.515670366019975  26.021565229169827  9.455118769822478  120.000000
2.108  0.000000  0.000000  0.000000  -37.43104486797115  12.586400308277197  33.98846978633226  55.986988273068974  1.2385695847743892  3.6167096954978395  -26.862941854550733  56.44931750050829  25.22092400233309  9.65272754467516  120.000000
2.139  0.000000  0.000000  0.000000  -39.01595654116086  13.192476822066098  31.952924698732243  55.774518615045906  2.541812255926624  4.712063614413818  -25.317392029314885  55.395489037955215  24.337450709309383  9.843858969836282  120.000000
2.17  0.000000  0.000000  0.000000  -40.62553940514091  13.781558701850626  29.65530130142583  55.658287381810005  3.8447172352293304  6.223634447001879  -24.003198073649873  54.57139625599043  23.53493211409093  9.965018151479414  120.000000
2.201  0.000000  0.000000  0.000000  -41.86867839163508  14.373499981366615  27.231325244915478  55.500080793848525  4.851426925301261  7.458880889976337  -22.669256071021493  53.906305571287724  22.699619033943478  10.15221953546411  120.000000
2.232  0.000000  0.000000  0.000000  -42.83491266493364  14.917007950783637  24.87931908718102  54.99648971660003  5.596121202878803  8.529249159357066  -21.49129254629294  53.147006204554664  21.99448834999951  10.39712917394732  120.000000
2.263  0.000000  0.000000  0.000000  -43.53128920550466  15.246238710569425  22.624718665144677  54.69731774034203  6.344151275015117  9.432089004517502  -20.612285951496016  52.14344968178291  21.509527900564116  10.652281133845364  120.000000
2.294  0.000000  0.000000  0.000000  -44.052593088301855  15.357425980085365  20.531149964575906  54.24281561896697  7.057900768044538  10.09752179378701  -19.842527827451473  50.92892508853947  21.16982683775961  10.96867997566313  120.000000
2.325  0.000000  0.000000  0.000000  -44.489577529753824  15.339667038930108  18.66196419996016  54.14241051345153  7.527826550367505  10.66476369532943  -19.21927304565645  49.614139631495426  20.96629565995569  11.296442661715403  120.000000
2.356  0.000000  0.000000  0.000000  -44.92177905273459  15.14026935371681  16.838795654057208  54.116234913817735  7.681683774163707  11.018837877806497  -18.509171119894486  48.44119029828241  20.786131486658423  11.651534589201956  120.000000
2.387  0.000000  0.000000  0.000000  -45.28224929970995  14.718895498529175  14.91154498746122  54.327938609196515  7.620324487812242  11.261969934757834  -17.648990601543463  47.42293200208908  20.57801275830159  12.030379748655651  120.000000
